<svg viewBox="0 -47 512 512" xmlns="http://www.w3.org/2000/svg"><path d="m494.761719 132.136719c-3.726563-4.96875-5.859375-12.152344-5.859375-19.710938 0-1.691406.839844-8.945312 11.667968-31.277343 5.816407-11.992188 6.578126-26.878907 2.039063-39.816407-3.496094-9.957031-9.789063-17.515625-17.71875-21.289062-19.996094-9.5-82.773437-29.910157-233.648437-14.414063-14.355469.007813-27.773438.515625-40.09375 1.511719-13.050782-1.277344-27.78125-1.914063-44.296876-1.914063-4.992187 0-9.941406.0625-15.125.191407-4.792968-.125-9.742187-.1875-14.875-.1875-49.113281 0-85.789062 5.640625-109.011718 16.765625-7.886719 3.777344-14.144532 11.3125-17.613282 21.21875-4.492187 12.808594-3.75 27.558594 1.992188 39.449218 10.09375 20.925782 10.882812 27.84375 10.882812 29.464844 0 7.617188-2.148437 14.839844-5.886718 19.808594-11.101563 14.753906-17.214844 34.007812-17.214844 54.214844v143.183594c0 4.140624 3.355469 7.5 7.5 7.5s7.5-3.359376 7.5-7.5v-143.183594c0-16.726563 5.175781-33.203125 14.199219-45.199219 5.738281-7.625 8.898437-17.863281 8.898437-28.824219 0-2.558594 0-10.34375-12.371094-35.984375-3.984374-8.257812-4.5-18.976562-1.347656-27.96875 2.144532-6.117187 5.675782-10.609375 9.941406-12.65625 14.5625-6.972656 44.171876-15.292969 102.527344-15.292969 42.273438 0 72.886719 4.371094 90.996094 12.984376 4.289062 2.039062 7.84375 6.550781 10.003906 12.703124 3.203125 9.125 2.675782 19.992188-1.378906 28.363282-13.167969 27.191406-13.167969 35.214844-13.167969 37.851562 0 10.898438 3.144531 21.105469 8.859375 28.734375 9.050782 12.085938 14.238282 28.582031 14.238282 45.253907v181.207031c0 19.878906-10.667969 36.675781-23.300782 36.675781h-184.796875c-12.628906 0-23.300781-16.796875-23.300781-36.675781v-5.820313c0-4.144531-3.355469-7.5-7.5-7.5s-7.5 3.355469-7.5 7.5v5.820313c0 28.976562 16.824219 51.675781 38.300781 51.675781h397.53125c4.144531 0 7.5-3.359375 7.5-7.5s-3.355469-7.5-7.5-7.5h-70.71875c6.871094-9.285156 11.066407-22.175781 11.066407-36.628906v-181.035156c0-20.128907-6.117188-39.378907-17.234376-54.207032-3.726562-4.960937-5.863281-12.144531-5.863281-19.703125 0-.746093.160157-2.542969 1.242188-6.191406 1.175781-3.96875-1.089844-8.144531-5.058594-9.320313-3.96875-1.179687-8.148437 1.085938-9.324219 5.058594-1.253906 4.222656-1.859375 7.640625-1.859375 10.453125 0 10.898438 3.148438 21.097657 8.867188 28.707031 9.042969 12.066407 14.230469 28.539063 14.230469 45.203126v181.035156c0 19.855468-10.667969 36.628906-23.300782 36.628906h-57.554687c6.878906-9.296875 11.074219-22.203125 11.074219-36.679688v-181.207031c0-20.136719-6.121094-39.402343-17.234376-54.242187-3.726562-4.980469-5.863281-12.175782-5.863281-19.746094 0-1.691406.839844-8.953125 11.667969-31.308594 5.820312-12.007812 6.582031-26.910156 2.035156-39.855468-3.171875-9.035157-8.648437-16.089844-15.558594-20.140626 34.6875.925782 60.28125 5.207032 76.183594 12.769532 10.5625 5.019531 15.316406 23.65625 9.777344 38.347656-1.460938 3.878906.496094 8.203125 4.371094 9.664062.871094.328126 1.765625.484376 2.644531.484376 3.03125 0 5.886719-1.851563 7.019531-4.855469 8.332032-22.105469.214844-48.828125-17.371094-57.1875-3.753906-1.785157-7.902343-3.398438-12.445312-4.847657 90.546875-1.726562 130.214844 12.878907 141.824219 18.394532 4.292969 2.042968 7.847656 6.554687 10.003906 12.710937 3.199219 9.109375 2.667969 19.953125-1.382813 28.304688-13.171874 27.164062-13.171874 35.183593-13.171874 37.820312 0 10.890625 3.148437 21.085938 8.859374 28.707031 9.050782 12.074219 14.242188 28.546876 14.242188 45.203126v181.035156c0 19.855468-10.671875 36.628906-23.300781 36.628906h-5.617188c-4.140625 0-7.5 3.359375-7.5 7.5s3.359375 7.5 7.5 7.5h5.617188c21.476562 0 38.300781-22.679688 38.300781-51.628906v-181.035156c0-20.121094-6.121094-39.371094-17.238281-54.199219zm-228.292969-57.859375c-13.167969 27.191406-13.167969 35.210937-13.167969 37.847656 0 10.898438 3.144531 21.105469 8.855469 28.738281 9.054688 12.082031 14.242188 28.578125 14.242188 45.25v181.207031c0 19.882813-10.667969 36.679688-23.300782 36.679688h-2.777344c6.878907-9.292969 11.078126-22.203125 11.078126-36.675781v-181.210938c0-20.136719-6.121094-39.398437-17.230469-54.242187-3.730469-4.976563-5.867188-12.175782-5.867188-19.742188 0-1.695312.839844-8.957031 11.671875-31.3125 5.820313-12.015625 6.578125-26.921875 2.027344-39.871094-1.671875-4.761718-3.988281-8.96875-6.816406-12.480468 4.734375 1.402344 8.964844 2.984375 12.660156 4.742187 4.292969 2.042969 7.84375 6.5625 10.007812 12.71875 3.203126 9.125 2.671876 19.984375-1.382812 28.351563zm0 0"/><path d="m74.1875 57.480469c-2.929688-2.929688-7.675781-2.929688-10.605469 0-2.929687 2.929687-2.929687 7.675781 0 10.605469l6 6c1.464844 1.464843 3.382813 2.195312 5.304688 2.195312 1.917969 0 3.835937-.730469 5.300781-2.195312 2.929688-2.929688 2.929688-7.679688 0-10.605469zm0 0"/><path d="m188.335938 246.859375c-3.976563-1.179687-8.148438 1.082031-9.324219 5.054687l-2.417969 8.136719c-1.179688 3.96875 1.085938 8.144531 5.054688 9.324219.714843.210938 1.433593.3125 2.140624.3125 3.234376 0 6.21875-2.109375 7.1875-5.371094l2.414063-8.132812c1.175781-3.96875-1.085937-8.144532-5.054687-9.324219zm0 0"/><path d="m193.527344 344.355469c1.203125 2.875 3.988281 4.609375 6.921875 4.609375.964843 0 1.945312-.1875 2.890625-.582032 3.820312-1.597656 5.625-5.988281 4.027344-9.8125l-3.269532-7.828124c-1.601562-3.820313-5.988281-5.625-9.8125-4.027344-3.824218 1.59375-5.628906 5.988281-4.027344 9.808594zm0 0"/><path d="m77.339844 352.054688c1.023437.472656 2.09375.695312 3.148437.695312 2.832031 0 5.542969-1.609375 6.8125-4.347656l3.566407-7.699219c1.742187-3.757813.105468-8.21875-3.652344-9.960937-3.761719-1.738282-8.21875-.105469-9.957032 3.652343l-3.566406 7.699219c-1.746094 3.761719-.109375 8.21875 3.648438 9.960938zm0 0"/><path d="m125.179688 224.488281-2.921876 7.964844c-1.425781 3.890625.574219 8.199219 4.460938 9.625.851562.3125 1.722656.457031 2.582031.457031 3.058594 0 5.929688-1.882812 7.042969-4.917968l2.917969-7.96875c1.425781-3.886719-.570313-8.199219-4.460938-9.621094-3.886719-1.425782-8.195312.570312-9.621093 4.460937zm0 0"/><path d="m101.28125 128.207031c2.832031 0 5.542969-1.609375 6.8125-4.347656l3.5625-7.699219c1.742188-3.757812.105469-8.21875-3.652344-9.957031-3.757812-1.742187-8.214844-.105469-9.957031 3.652344l-3.566406 7.699219c-1.738281 3.757812-.105469 8.214843 3.652343 9.957031 1.019532.472656 2.09375.695312 3.148438.695312zm0 0"/><path d="m70.449219 238.488281c-3.761719-1.742187-8.21875-.105469-9.960938 3.652344l-3.566406 7.699219c-1.742187 3.757812-.105469 8.214844 3.652344 9.957031 1.019531.472656 2.09375.695313 3.148437.695313 2.832032 0 5.539063-1.609376 6.808594-4.347657l3.566406-7.699219c1.746094-3.757812.109375-8.21875-3.648437-9.957031zm0 0"/><path d="m138.074219 308.410156c-3.371094 2.410156-4.148438 7.09375-1.742188 10.464844l4.9375 6.902344c1.460938 2.046875 3.765625 3.136718 6.105469 3.136718 1.511719 0 3.035156-.453124 4.355469-1.398437 3.371093-2.40625 4.148437-7.089844 1.738281-10.460937l-4.933594-6.902344c-2.40625-3.371094-7.09375-4.148438-10.460937-1.742188zm0 0"/><path d="m174.84375 184.179688c-1.054688 4.003906 1.335938 8.105468 5.34375 9.160156l8.207031 2.160156c.640625.167969 1.28125.246094 1.914063.246094 3.324218 0 6.359375-2.226563 7.246094-5.589844 1.054687-4.007812-1.335938-8.109375-5.34375-9.164062l-8.207032-2.15625c-4.011718-1.058594-8.109375 1.335937-9.160156 5.34375zm0 0"/><path d="m152.855469 83.175781-6.699219-5.210937c-3.269531-2.542969-7.980469-1.957032-10.523438 1.3125-2.542968 3.269531-1.953124 7.984375 1.316407 10.527344l6.695312 5.207031c1.371094 1.066406 2.992188 1.582031 4.601563 1.582031 2.234375 0 4.445312-.996094 5.925781-2.894531 2.542969-3.269531 1.953125-7.980469-1.316406-10.523438zm0 0"/><path d="m194.9375 52.941406-8.480469.28125c-4.140625.136719-7.382812 3.605469-7.246093 7.742188.132812 4.058594 3.464843 7.253906 7.488281 7.253906.085937 0 .171875 0 .253906-.003906l8.480469-.28125c4.140625-.136719 7.386718-3.605469 7.25-7.742188-.136719-4.140625-3.640625-7.386718-7.746094-7.25zm0 0"/><path d="m158.042969 156.097656c2.285156-3.453125 1.339843-8.105468-2.117188-10.394531l-7.074219-4.679687c-3.457031-2.285157-8.109374-1.339844-10.394531 2.117187-2.285156 3.457031-1.339843 8.105469 2.117188 10.394531l7.078125 4.679688c1.273437.84375 2.707031 1.246094 4.128906 1.246094 2.433594 0 4.820312-1.183594 6.261719-3.363282zm0 0"/><path d="m55.71875 165.679688c-2.285156 3.453124-1.339844 8.105468 2.117188 10.390624l7.074218 4.683594c1.273438.84375 2.710938 1.246094 4.132813 1.246094 2.433593 0 4.820312-1.183594 6.261719-3.363281 2.285156-3.453125 1.339843-8.109375-2.117188-10.394531l-7.074219-4.679688c-3.460937-2.289062-8.109375-1.339844-10.394531 2.117188zm0 0"/><path d="m311.710938 264.722656 8.480468.226563c.066406 0 .136719.003906.203125.003906 4.050781 0 7.386719-3.226563 7.492188-7.300781.113281-4.140625-3.152344-7.585938-7.292969-7.699219l-8.484375-.226563c-4.148437-.105468-7.585937 3.15625-7.695313 7.296876-.113281 4.140624 3.152344 7.585937 7.296876 7.699218zm0 0"/><path d="m326.070312 345.933594c.976563 0 1.972657-.195313 2.929688-.601563l7.808594-3.316406c3.8125-1.621094 5.589844-6.027344 3.96875-9.835937-1.621094-3.8125-6.023438-5.589844-9.835938-3.96875l-7.808594 3.316406c-3.8125 1.621094-5.589843 6.027344-3.96875 9.835937 1.214844 2.855469 3.988282 4.570313 6.90625 4.570313zm0 0"/><path d="m313.496094 175.300781c-3.910156 1.359375-5.980469 5.636719-4.617188 9.546875l2.792969 8.011719c1.078125 3.097656 3.980469 5.035156 7.082031 5.035156.816406 0 1.648438-.132812 2.46875-.417969 3.910156-1.363281 5.976563-5.636718 4.613282-9.546874l-2.789063-8.015626c-1.363281-3.910156-5.640625-5.980468-9.550781-4.613281zm0 0"/><path d="m312.414062 64.871094c-4.136718-.164063-7.636718 3.03125-7.8125 7.167968l-.367187 8.476563c-.179687 4.140625 3.03125 7.640625 7.167969 7.820313.113281.003906.222656.003906.332031.003906 3.992187 0 7.3125-3.148438 7.484375-7.175782l.367188-8.476562c.179687-4.136719-3.03125-7.636719-7.171876-7.816406zm0 0"/></svg>