<?xml version="1.0" encoding="iso-8859-1"?>
<!-- Generator: Adobe Illustrator 19.0.0, SVG Export Plug-In . SVG Version: 6.00 Build 0)  -->
<svg version="1.1" id="Layer_1" xmlns="http://www.w3.org/2000/svg" xmlns:xlink="http://www.w3.org/1999/xlink" x="0px" y="0px"
	 viewBox="0 0 511.996 511.996" style="enable-background:new 0 0 511.996 511.996;" xml:space="preserve">
<g>
	<g>
		<path d="M256.002,0C144.073,0,53.339,19.102,53.339,42.664V469.34c0,23.562,90.734,42.656,202.663,42.656
			c111.938,0,202.655-19.094,202.655-42.656V42.665C458.657,19.102,367.939,0,256.002,0z M130.042,30.883
			c35.108-6.156,79.843-9.547,125.96-9.547c46.125,0,90.844,3.391,125.969,9.547c23.108,4.055,37.249,8.383,45.687,11.781
			c-8.438,3.406-22.578,7.734-45.687,11.789C346.846,60.609,302.127,64,256.002,64c-46.117,0-90.852-3.391-125.96-9.547
			c-23.117-4.055-37.25-8.383-45.695-11.789C92.792,39.266,106.925,34.938,130.042,30.883z M74.667,167.804
			c10.688,3.164,25,6.93,42.523,10.539v84.921c-18.062-3.883-32.375-7.891-42.523-11.086V167.804z M74.667,274.483
			c10.898,3.234,25.188,6.984,42.523,10.562v84.859c-18.312-3.938-32.664-7.969-42.523-11.062V274.483z M381.971,481.122
			c-35.125,6.156-79.844,9.531-125.969,9.531c-46.117,0-90.852-3.375-125.96-9.531c-36.758-6.453-50.789-13.594-55.375-16.594
			v-83.389c10.711,3.172,25.016,6.92,42.523,10.545v42.547c34.281,7.203,81.265,13.766,138.46,13.766
			c57.445,0,104.57-6.625,138.882-13.844v-42.328c17.125-3.531,31.469-7.295,42.812-10.67v83.373h0.001
			C432.751,467.528,418.72,474.669,381.971,481.122z M138.526,416.653v-272.2c37.421,6.234,76.694,9.391,117.124,9.391
			c40.586,0,80.008-3.18,117.539-9.453v272.185c-37.297,6.703-76.75,10.078-117.539,10.078
			C215.025,426.653,175.705,423.31,138.526,416.653z M437.345,358.843c-9.688,3.031-24.156,7.125-42.812,11.094v-84.859
			c17.625-3.625,32.016-7.422,42.812-10.609V358.843z M437.345,252.179c-9.953,3.117-24.391,7.172-42.812,11.117v-84.797
			c17.125-3.539,31.469-7.305,42.812-10.68V252.179z M437.346,145.508L437.346,145.508c-9.689,3.039-24.157,7.117-42.813,11.101
			v-37.953c-34.312,7.227-81.437,13.852-138.882,13.852c-57.195,0-104.179-6.57-138.46-13.766v37.82
			c-18.344-3.929-32.688-7.968-42.523-11.054V64h5.789c35.039,12.75,100.53,21.335,175.546,21.335S396.502,76.75,431.549,64h5.797
			V145.508z"/>
	</g>
</g>
<g>
	<g>
		<path d="M206.15,247.202c-47.148,47.141-44.617,135.125-44.617,135.125s96.711-6.203,135.125-44.609
			c38.406-38.422,53.531-144.047,53.531-144.047S253.291,200.062,206.15,247.202z M281.564,322.623
			c-6.718,6.72-16.851,12.938-30.117,18.438c-11.555,4.812-25.266,8.969-40.758,12.406c-9.695,2.125-18.883,3.719-26.695,4.844
			c0.633-6.438,1.617-13.906,3.133-21.906c4.242-22.5,13.602-53.625,34.109-74.117c16.414-16.422,43.75-29.781,79.047-38.648
			c8.469-2.133,16.5-3.766,23.562-5.008c-1.766,8.18-4,17.593-6.719,27.46C307.048,282.592,294.423,309.78,281.564,322.623z"/>
	</g>
</g>
<g>
	<g>
		<path d="M297.299,246.561c-6.25-6.25-14.453-9.367-22.641-9.367c-8.18,0-16.367,3.117-22.617,9.367c-12.5,12.5-12.5,32.75,0,45.25
			c6.25,6.25,14.438,9.375,22.617,9.375c8.188,0,16.391-3.125,22.641-9.375C309.783,279.311,309.783,259.061,297.299,246.561z
			 M282.221,276.733c-2.719,2.719-5.906,3.125-7.562,3.125c-1.641,0-4.812-0.406-7.531-3.125c-4.164-4.156-4.164-10.93,0-15.086
			c2.719-2.719,5.891-3.125,7.531-3.125c1.656,0,4.844,0.406,7.562,3.125C286.377,265.804,286.377,272.577,282.221,276.733z"/>
	</g>
</g>
<g>
	<g>
		<path d="M252.041,291.811c-6.25-6.25-14.438-9.375-22.625-9.375c-8.195,0.001-16.383,3.125-22.633,9.375
			c-12.492,12.5-12.492,32.766,0,45.25c6.25,6.25,14.438,9.375,22.633,9.375c8.188,0,16.375-3.125,22.625-9.375
			C264.533,324.577,264.533,304.311,252.041,291.811z M236.955,321.999c-2.719,2.719-5.891,3.109-7.539,3.109
			c-1.656,0-4.828-0.391-7.547-3.109c-4.156-4.172-4.156-10.938,0-15.094c2.719-2.719,5.891-3.125,7.547-3.125
			c1.648,0,4.82,0.406,7.539,3.125C241.111,311.061,241.111,317.827,236.955,321.999z"/>
	</g>
</g>
<g>
</g>
<g>
</g>
<g>
</g>
<g>
</g>
<g>
</g>
<g>
</g>
<g>
</g>
<g>
</g>
<g>
</g>
<g>
</g>
<g>
</g>
<g>
</g>
<g>
</g>
<g>
</g>
<g>
</g>
</svg>
