<svg viewBox="0 0 512 512" xmlns="http://www.w3.org/2000/svg"><path d="m504.5 327.5c4.144531 0 7.5-3.355469 7.5-7.5v-202.171875c0-.042969-.007812-.085937-.007812-.128906 0-.085938-.007813-.175781-.011719-.261719-.011719-.226562-.035157-.449219-.066407-.667969-.011718-.082031-.019531-.164062-.035156-.246093-.050781-.28125-.113281-.558594-.191406-.828126-.003906-.015624-.007812-.03125-.011719-.042968-.089843-.300782-.203125-.589844-.328125-.871094-.023437-.054688-.050781-.105469-.078125-.160156-.109375-.234375-.234375-.460938-.367187-.679688-.019532-.035156-.035156-.074218-.058594-.113281l-49.519531-78.5v-27.828125c0-4.144531-3.355469-7.5-7.5-7.5h-200c-4.140625 0-7.5 3.355469-7.5 7.5v27.878906l-48.21875 78.527344c-.027344.046875-.050781.097656-.082031.148438-.074219.128906-.144532.257812-.210938.390624-.046875.089844-.09375.1875-.136719.28125-.058593.125-.109375.253907-.160156.382813-.042969.105469-.082031.214844-.117187.324219-.042969.117187-.078126.238281-.113282.355468-.03125.125-.066406.25-.09375.371094-.023437.109375-.046875.21875-.066406.332032-.023438.140624-.046875.277343-.0625.417968-.011719.101563-.023438.203125-.03125.304688-.011719.148437-.019531.300781-.023438.449218 0 .058594-.007812.109376-.007812.167969v76.996094c-2.695312-2.207031-5.59375-4.207031-8.675781-5.960937l-17.753907-10.109376c-14.878906-8.472656-24.117187-24.367187-24.117187-41.484374v-20.261719h.554687c6.339844 0 11.5-5.160157 11.5-11.5v-22c0-6.34375-5.160156-11.5-11.5-11.5h-74c-6.339843 0-11.5 5.15625-11.5 11.5v22c0 6.339843 5.160157 11.5 11.5 11.5h.554688v20.261719c0 17.117187-9.242188 33.011718-24.117188 41.484374l-17.753906 10.109376c-19.546875 11.128906-31.691406 32.019531-31.691406 54.515624v172.492188c0 4.144531 3.355469 7.5 7.5 7.5s7.5-3.355469 7.5-7.5v-172.492188c0-9.171874 2.675781-17.980468 7.425781-25.5h175.164063c.125.195313.25.394532.371094.59375.113281.199219.234374.394532.367187.585938 4.292969 7.25 6.6875 15.625 6.6875 24.320312v244.769532c0 4.878906-3.96875 8.847656-8.847656 8.847656h-172.320313c-4.878906 0-8.847656-3.96875-8.847656-8.847656v-40.652344c0-4.144531-3.355469-7.5-7.5-7.5s-7.5 3.355469-7.5 7.5v40.652344c0 13.148437 10.699219 23.847656 23.847656 23.847656h480.652344c4.144531 0 7.5-3.355469 7.5-7.5v-152.5c0-4.144531-3.355469-7.5-7.5-7.5s-7.5 3.355469-7.5 7.5v35h-35.675781v-224.828125c0-4.144531-3.355469-7.5-7.5-7.5-4.140625 0-7.5 3.355469-7.5 7.5v224.828125h-34.324219v-261.671875h85v194.671875c0 4.144531 3.355469 7.5 7.5 7.5zm-284.484375 160.652344v-86.152344h176.984375v95h-178.691406c1.097656-2.738281 1.707031-5.722656 1.707031-8.847656zm180.289063-377.824219h-143.972657c-4.140625 0-7.5 3.359375-7.5 7.5 0 4.144531 3.359375 7.5 7.5 7.5h140.667969v261.671875h-176.984375v-143.617188c0-10.898437-2.855469-21.414062-8.015625-30.628906v-87.425781h11.667969c4.140625 0 7.5-3.355469 7.5-7.5 0-4.140625-3.359375-7.5-7.5-7.5h-5.761719l40.113281-65.328125h182.402344zm-138.980469-95.328125h185v15h-185zm-184.816407 72.007812h67v15h-67zm-19.636718 104.78125c19.546875-11.132812 31.691406-32.023437 31.691406-54.519531v-20.261719h42.890625v20.261719c0 22.496094 12.144531 43.386719 31.695313 54.519531l17.753906 10.109376c.546875.3125 1.070312.65625 1.597656.984374h-144.984375c.53125-.332031 1.050781-.671874 1.597656-.984374zm396.953125 267.882813c4.144531 0 7.5-3.359375 7.5-7.5v-50.171875h35.675781v95h-85v-95h34.324219v50.171875c0 4.140625 3.359375 7.5 7.5 7.5zm-35.917969-349.34375 36.007812-58.636719 36.988282 58.636719zm0 0"/></svg>