<?xml version="1.0" encoding="iso-8859-1"?>
<!-- Generator: Adobe Illustrator 19.0.0, SVG Export Plug-In . SVG Version: 6.00 Build 0)  -->
<svg version="1.1" id="Capa_1" xmlns="http://www.w3.org/2000/svg" xmlns:xlink="http://www.w3.org/1999/xlink" x="0px" y="0px"
	 viewBox="0 0 512 512" style="enable-background:new 0 0 512 512;" xml:space="preserve">
<g>
	<g>
		<path d="M455.224,142.351c-34.026-27.183-79.609-42.773-125.063-42.773c-49.818,0-90.479,19.654-124.304,60.085
			c-16.309,19.494-29.745,42.412-41.518,65.787c-65.313,2.331-104.517,28.813-126.164,51.19C11.805,303.901,0,336.956,0,357.622
			c0,14.528,1.53,30.884,12.883,42.046c11.431,11.238,28.344,12.754,43.38,12.754c0.021,0,0.041,0,0.063,0
			c2.28-0.002,4.53-0.104,6.754-0.306c18.468-1.572,41.685-8.969,66.102-16.748c28.127-8.961,57.212-18.227,77.771-18.227
			c33.163,0,53.814,4.811,75.679,9.904c20.745,4.833,42.197,9.83,73.246,9.83c22.399,0,65.424-3.876,101.906-29.838
			C493.252,341.799,512,302.472,512,253.31C512,211.007,491.836,171.601,455.224,142.351z M57.096,382.414
			c-0.237,0.004-0.463,0.045-0.706,0.008c-0.02-0.001-0.036-0.001-0.056,0c-0.024,0-0.048,0-0.071,0
			c-14.984,0-20.423-2.255-22.348-4.146C31.317,375.721,30,368.773,30,357.622c0-11.812,7.92-37.57,29.738-60.125
			c15.991-16.529,43.964-35.784,89.799-40.908c-3.09,6.804-6.084,13.535-9.012,20.117
			C115.481,333.006,93.825,381.687,57.096,382.414z M355.877,366.877c-27.601,0-46.467-4.395-66.44-9.048
			c-22.553-5.254-45.873-10.687-82.484-10.687c-22.341,0-49.485,7.835-76.46,16.336c13.652-21.093,25.249-47.165,37.443-74.579
			c6.14-13.802,12.317-27.69,18.826-41.2c0.332-0.583,0.626-1.189,0.879-1.817c30.28-62.392,67.987-116.305,142.521-116.305
			C403.489,129.576,482,179.296,482,253.31C482,361.401,376.938,366.877,355.877,366.877z"/>
	</g>
</g>
<g>
	<g>
		<path d="M313.96,269.539c-2.79-2.79-6.65-4.391-10.601-4.391c-3.949,0-7.819,1.601-10.609,4.391
			c-2.79,2.79-4.391,6.66-4.391,10.609c0,3.95,1.601,7.82,4.391,10.61s6.66,4.39,10.609,4.39c3.95,0,7.811-1.6,10.601-4.39
			c2.8-2.79,4.399-6.66,4.399-10.61C318.359,276.199,316.759,272.339,313.96,269.539z"/>
	</g>
</g>
<g>
	<g>
		<path d="M384.649,212.94c-2.79-2.791-6.659-4.39-10.609-4.39c-3.95,0-7.811,1.6-10.61,4.39c-2.79,2.801-4.39,6.66-4.39,10.61
			s1.6,7.82,4.39,10.61c2.8,2.79,6.67,4.39,10.61,4.39c3.95,0,7.81-1.6,10.609-4.39c2.79-2.801,4.391-6.66,4.391-10.61
			C389.04,219.609,387.439,215.74,384.649,212.94z"/>
	</g>
</g>
<g>
</g>
<g>
</g>
<g>
</g>
<g>
</g>
<g>
</g>
<g>
</g>
<g>
</g>
<g>
</g>
<g>
</g>
<g>
</g>
<g>
</g>
<g>
</g>
<g>
</g>
<g>
</g>
<g>
</g>
</svg>
