<?xml version="1.0" encoding="iso-8859-1"?>
<!-- Generator: Adobe Illustrator 19.0.0, SVG Export Plug-In . SVG Version: 6.00 Build 0)  -->
<svg version="1.1" id="Capa_1" xmlns="http://www.w3.org/2000/svg" xmlns:xlink="http://www.w3.org/1999/xlink" x="0px" y="0px"
	 viewBox="0 0 512 512" style="enable-background:new 0 0 512 512;" xml:space="preserve">
<g>
	<g>
		<path d="M499.46,279.333c-6.074-8.149-14.292-16.099-24.012-23.328c9.72-7.228,17.938-15.178,24.012-23.328
			c12.184-16.35,15.634-33.224,9.715-47.513c-12.549-30.3-61.754-36.689-114.459-14.862c-13.509,5.597-25.84,12.514-36.467,20.385
			c-4.64-7.262-10.121-14.138-16.46-20.477c-47.303-47.303-124.274-47.304-171.578,0.001c-6.338,6.338-11.819,13.213-16.459,20.474
			c-10.628-7.871-22.96-14.79-36.47-20.387c-23.099-9.567-46.941-14.044-67.138-12.611c-23.88,1.698-40.686,11.454-47.32,27.473
			c-5.917,14.289-2.467,31.163,9.716,47.512c6.073,8.15,14.291,16.1,24.011,23.329c-9.72,7.229-17.938,15.178-24.011,23.328
			c-12.184,16.35-15.634,33.224-9.715,47.513c7.543,18.212,28.329,27.786,55.159,27.786c17.807,0,38.276-4.218,59.301-12.925
			c13.509-5.596,25.841-12.514,36.469-20.386c4.64,7.26,10.12,14.135,16.458,20.473c23.656,23.655,54.718,35.478,85.791,35.478
			c31.065,0,62.139-11.829,85.788-35.478c6.337-6.337,11.817-13.211,16.456-20.471c10.629,7.873,22.963,14.792,36.473,20.387
			c20.272,8.397,41.116,12.875,59.566,12.875c2.572,0,5.1-0.087,7.571-0.263c23.88-1.697,40.685-11.454,47.319-27.473
			C515.094,312.556,511.643,295.683,499.46,279.333z M105.804,313.987c-38.913,16.115-71.069,11.501-75.263,1.376
			c-3.381-8.162,9.323-29.275,41.136-46.101c4.913-2.599,7.987-7.702,7.987-13.26c0-5.558-3.074-10.661-7.987-13.259
			c-31.813-16.826-44.516-37.941-41.136-46.103c1.97-4.755,10.296-8.214,21.73-9.027c15.414-1.095,34.924,2.697,53.53,10.403
			c13.209,5.473,25.269,12.598,34.829,20.492c-7.861,24.326-7.861,50.661,0.001,74.988
			C131.07,301.39,119.012,308.515,105.804,313.987z M191.423,191.426c17.807-17.806,41.189-26.707,64.578-26.707
			c18.637,0,37.269,5.675,53.082,16.985l-127.38,127.38C156.203,273.431,159.43,223.419,191.423,191.426z M320.576,320.577
			c-31.993,31.994-82.006,35.22-117.66,9.72l127.38-127.38C355.796,238.57,352.569,288.583,320.576,320.577z M481.458,315.367
			c-1.97,4.755-10.296,8.215-21.729,9.027c-15.413,1.091-34.923-2.696-53.53-10.404c-13.209-5.471-25.269-12.597-34.831-20.493
			c7.862-24.326,7.862-50.661,0.002-74.987c9.56-7.895,21.619-15.02,34.827-20.491c38.914-16.115,71.069-11.5,75.262-1.375
			c3.381,8.162-9.323,29.274-41.136,46.1c-4.914,2.599-7.987,7.701-7.987,13.259s3.073,10.661,7.986,13.26
			C472.134,286.092,484.838,307.206,481.458,315.367z"/>
	</g>
</g>
<g>
</g>
<g>
</g>
<g>
</g>
<g>
</g>
<g>
</g>
<g>
</g>
<g>
</g>
<g>
</g>
<g>
</g>
<g>
</g>
<g>
</g>
<g>
</g>
<g>
</g>
<g>
</g>
<g>
</g>
</svg>
