<?xml version="1.0" encoding="utf-8"?>
<!-- Generator: Adobe Illustrator 16.0.0, SVG Export Plug-In . SVG Version: 6.00 Build 0)  -->
<!DOCTYPE svg PUBLIC "-//W3C//DTD SVG 1.1//EN" "http://www.w3.org/Graphics/SVG/1.1/DTD/svg11.dtd">
<svg version="1.1" id="Capa_1" xmlns="http://www.w3.org/2000/svg" xmlns:xlink="http://www.w3.org/1999/xlink" x="0px" y="0px"
	 width="292.702px" height="64.343px" viewBox="0 0 292.702 64.343" enable-background="new 0 0 292.702 64.343"
	 xml:space="preserve">
<g>
	<path style="fill:#e69b76;" d="M108.66,2.856c0.168-0.336,0.588-0.42,0.588-0.42h16.212c0,0,0.504,0,0.42,0.42l0.252,59.136c0,0.42-0.504,0.42-0.504,0.42
		h-17.136c0,0-0.504,0-0.42-0.42l0.252-26.88l1.596-8.652c-1.008,1.764-13.188,25.032-13.188,25.032
		c-0.168,0.336-0.504,0.336-1.092,0.336h-2.352c-1.008,0-1.008,0-1.176-0.336L78.336,26.208l1.596,7.812l0.504,27.972
		c0,0.42-0.42,0.42-0.42,0.42H62.292c0,0-0.504,0-0.42-0.42c0,0,0.588-45.864,0.588-45.948c-0.42-9.66-5.712-7.728-4.872-9.828
		C58.596,3.444,64.729,0,70.272,0c7.98,0,11.676,5.964,15.54,12.684c4.2,7.224,8.4,16.043,8.4,16.043L108.66,2.856z"/>
	<path style="fill:#e69b76;" d="M172.331,50.736c-0.924,3.527-7.896,13.439-20.159,13.439c-12.684,0-22.848-10.248-22.848-22.932
		c0-12.264,9.492-22.848,23.94-22.848c13.776,0,19.74,8.652,19.74,14.616c0,13.188-15.372,14.785-26.376,12.936
		c2.94,8.399,14.112,9.239,24.359,3.528c0.336-0.252,0.756-0.336,1.092-0.084S172.583,49.98,172.331,50.736z M145.956,38.556
		c7.476,0.672,11.172-2.1,11.172-6.636c0-2.268-1.848-4.2-4.452-4.032c0,0,0,0.084-0.084,0.084s-0.168,0-0.252,0
		c-0.588,0.084-1.344,0.336-2.016,0.756C147.551,30.408,146.292,34.44,145.956,38.556z"/>
	<path style="fill:#e69b76;" d="M225.922,58.295c-0.84,2.688-5.376,5.964-10.08,5.964c-5.796,0-10.332-3.611-11.424-9.576
		c-2.855,5.461-7.392,9.492-13.271,9.492c-10.584,0-16.465-11.676-16.465-22.932c0-11.508,5.881-22.764,16.885-22.764
		c5.796,0,9.912,3.276,12.516,7.98c0-3.528,0-5.796,0-5.796c0-0.42,0.42-0.504,0.42-0.504h16.8c0,0,0.336,0.084,0.336,0.42
		c0,0-0.588,19.152-0.588,24.948C221.05,58.884,226.762,56.028,225.922,58.295z M204.586,41.244c0-6.3-2.184-11.424-6.3-11.424
		s-6.3,5.124-6.3,11.424s2.184,11.34,6.3,11.34S204.586,47.543,204.586,41.244z"/>
	<path style="fill:#e69b76;" d="M228.61,2.016h16.8c0,0,0.42,0,0.336,0.42c0,0,0.084,37.296,0.084,43.092c0,13.356,5.712,10.5,4.956,12.768
		c-0.924,2.688-6.132,5.964-10.836,5.964c-6.805,0-11.761-4.871-11.761-12.768c0-0.504,0-49.056,0-49.056
		C228.189,2.016,228.61,2.016,228.61,2.016z"/>
	<path style="fill:#e69b76;" d="M292.702,50.652c0,10.164-12.096,13.691-21.672,13.691c-7.477,0-19.74-2.604-19.74-10.92c0-4.115,3.276-7.644,8.148-7.644
		c2.771,0,5.964,0.756,6.3,1.428c0.504,0.757,0.168,1.849,0.168,3.444c0,3.359,2.1,5.124,4.956,5.124
		c3.107,0,4.452-1.513,4.536-3.78c-0.168-4.031-5.796-4.956-12.013-6.972c-5.712-2.017-11.34-6.048-11.424-12.684
		c0-0.084,0-0.168,0-0.252c0-8.736,10.332-13.692,18.9-13.692c9.828,0,19.823,3.444,19.823,10.92
		c0.085,4.032-2.939,7.308-8.147,7.308c-2.94,0-5.712-0.924-6.048-1.512c-0.42-0.672-0.084-1.764-0.084-3.444
		c0-3.36-1.428-4.872-4.284-4.788c-2.604,0.084-3.948,2.352-3.948,3.948c0,4.116,4.956,5.208,10.752,6.888
		C285.646,39.648,292.702,43.007,292.702,50.652z"/>
</g>
<g>
	<g>
		<path style="fill:#fafafa;" d="M36.039,62.099c0,0,0.078,0.312-0.312,0.312c-14.977,0-34.244,0-34.244,0c-0.39,0-0.39-0.312-0.39-0.312V50.711
			c0,0,0-0.234,0.234-0.312C8.114,47.669,21.53,35.735,21.53,29.806c0-2.262-0.936-4.524-3.822-4.524
			c-2.574,0-4.602,1.716-4.602,4.836c0,1.56,0.312,2.574-0.078,3.198c-0.39,0.624-3.12,1.404-5.694,1.404
			c-4.446,0-7.41-3.354-7.333-7.098c0-7.878,11.077-10.297,17.785-10.297c8.658,0,19.345,3.51,19.345,12.325
			c0,11.544-21.373,20.671-21.373,20.671l-0.234,0.077c7.956-0.077,15.601-0.077,20.203-0.077c0.312,0,0.312,0.312,0.312,0.312
			V62.099z"/>
		<path style="fill:#fafafa;" d="M56.786,17.56c0,6.162,0,44.461,0,44.461c0,0.391-0.312,0.391-0.312,0.391H41.419c0,0-0.312,0-0.312-0.391
			c0,0,0-31.123,0-31.201c0-7.02-2.496-7.566-2.808-8.424c-0.39-0.78,0.312-1.248,1.794-1.56c0.702-0.156,16.459-3.666,16.459-3.666
			S56.786,17.17,56.786,17.56z"/>
	</g>
</g>
</svg>
