<?xml version="1.0" encoding="UTF-8" standalone="no"?>
<!-- Generator: Adobe Illustrator 16.0.0, SVG Export Plug-In . SVG Version: 6.00 Build 0)  -->

<svg
   xmlns:dc="http://purl.org/dc/elements/1.1/"
   xmlns:cc="http://creativecommons.org/ns#"
   xmlns:rdf="http://www.w3.org/1999/02/22-rdf-syntax-ns#"
   xmlns:svg="http://www.w3.org/2000/svg"
   xmlns="http://www.w3.org/2000/svg"
   xmlns:sodipodi="http://sodipodi.sourceforge.net/DTD/sodipodi-0.dtd"
   xmlns:inkscape="http://www.inkscape.org/namespaces/inkscape"
   version="1.1"
   id="Capa_1"
   x="0px"
   y="0px"
   width="643.54181"
   height="139.89691"
   viewBox="0 0 643.5418 139.89691"
   enable-background="new 0 0 841.89 1190.55"
   xml:space="preserve"
   sodipodi:docname="logo.svg"
   inkscape:version="0.92.3 (2405546, 2018-03-11)"><metadata
   id="metadata3753"><rdf:RDF><cc:Work
       rdf:about=""><dc:format>image/svg+xml</dc:format><dc:type
         rdf:resource="http://purl.org/dc/dcmitype/StillImage" /><dc:title></dc:title></cc:Work></rdf:RDF></metadata><defs
   id="defs3751" /><sodipodi:namedview
   pagecolor="#ffffff"
   bordercolor="#666666"
   borderopacity="1"
   objecttolerance="10"
   gridtolerance="10"
   guidetolerance="10"
   inkscape:pageopacity="0"
   inkscape:pageshadow="2"
   inkscape:window-width="3840"
   inkscape:window-height="2115"
   id="namedview3749"
   showgrid="false"
   showguides="false"
   fit-margin-top="0"
   fit-margin-left="0"
   fit-margin-right="0"
   fit-margin-bottom="0"
   inkscape:zoom="1.5438242"
   inkscape:cx="321.77163"
   inkscape:cy="270.97915"
   inkscape:window-x="-13"
   inkscape:window-y="-13"
   inkscape:window-maximized="1"
   inkscape:current-layer="Capa_1" />
<g
   id="g3746"
   transform="translate(-99.173374,-622.71852)">
	<path
   style="fill:#e69b76"
   d="m 283.568,632.329 c -7.797,0.001 -15.596,0.002 -23.387,-0.21 -4.297,-0.117 -6.042,2.257 -7.396,5.884 -2.618,7.01 -5.487,13.933 -8.455,20.805 -6.715,15.549 -13.553,31.044 -20.342,46.562 -0.374,-0.123 -0.748,-0.246 -1.123,-0.368 -0.787,-10.723 -1.357,-21.468 -2.424,-32.163 -1.044,-10.477 -3.174,-20.744 -8.446,-30.07 -10.711,-18.949 -37.692,-15.464 -48.255,-1.745 -1.648,2.142 -2.098,4.243 0.749,5.811 4.344,2.392 4.446,6.294 3.694,10.427 -3.475,19.115 -9.002,37.597 -18.798,54.458 -3.454,5.945 -7.833,11.745 -12.993,16.223 -9.637,8.362 -19.666,4.57 -22.717,-7.804 -1.07,-4.34 -3.202,-5.077 -6.514,-2.032 -1.445,1.329 -2.711,2.974 -3.67,4.691 -5.574,9.981 -6.127,20.213 0.562,29.695 6.732,9.544 16.954,11.36 27.711,9.438 13.241,-2.365 21.227,-11.868 27.855,-22.563 10.852,-17.51 16.391,-37.03 20.805,-56.918 1.453,-6.547 2.613,-13.159 3.906,-19.742 8.092,31.896 6.932,64.25 7.078,97.689 6.955,0 13.546,0.044 20.135,-0.018 3.473,-0.032 5.572,-1.605 7.069,-5.042 11.499,-26.386 23.229,-52.671 34.896,-78.984 0.808,-1.82 1.67,-3.617 2.506,-5.426 1.099,1.276 1.301,2.226 1.295,3.174 -0.152,26.979 -0.285,53.957 -0.558,80.935 -0.027,2.745 -0.24,5.234 3.329,5.277 8.127,0.099 16.258,0.107 24.383,-0.045 2.836,-0.053 4.225,-1.563 4.295,-4.778 0.178,-7.992 0.938,-15.97 1.208,-23.961 1.068,-31.667 0.952,-63.307 -2.348,-94.873 -0.292,-2.813 -1.024,-4.327 -4.05,-4.327 z"
   id="path3734"
   inkscape:connector-curvature="0" />
	<path
   style="fill:#e69b76"
   d="m 497.399,686.73 c 0.771,-5.862 1.453,-11.735 2.355,-19.071 -6.778,0 -12.712,-0.2 -18.626,0.047 -8.605,0.36 -8.596,0.498 -10.516,8.996 -0.399,1.768 -0.834,3.526 -1.396,5.893 -6.471,-10.087 -10.65,-13.493 -18.606,-15.221 -13.243,-2.876 -24.545,1.207 -33.497,10.842 -15.444,16.62 -19.797,36.58 -15.066,58.394 2.615,12.062 9.295,21.727 22.136,24.514 13.565,2.943 24.86,-1.892 33.681,-12.536 1.211,-1.463 2.359,-2.979 4.146,-5.244 0.389,7.116 1.723,12.851 7.384,16.383 9.187,5.731 25.92,0.481 30.079,-9.569 0.478,-1.154 0.077,-3.842 -0.622,-4.136 -8.834,-3.707 -7.842,-10.986 -6.903,-18.23 1.773,-13.694 3.652,-27.373 5.451,-41.062 z m -42.69,51.202 c -9.279,8.191 -20.141,5.465 -23.932,-6.264 -1.26,-3.897 -1.473,-8.134 -2.163,-12.216 0.706,-9.022 2.261,-17.682 7.586,-25.105 1.985,-2.768 4.573,-5.396 7.448,-7.179 7.428,-4.604 15.865,-1.871 19.783,5.938 6.525,13.01 2.213,35.17 -8.722,44.826 z"
   id="path3736"
   inkscape:connector-curvature="0" />
	<path
   style="fill:#e69b76"
   d="m 596.548,722.971 c 13.793,1.55 27.022,0.021 38.527,-8.469 8.896,-6.564 13.038,-15.736 11.208,-26.655 -1.789,-10.676 -9.49,-16.404 -19.352,-19.413 -32.805,-10.01 -66.485,12.714 -69.403,46.824 -1.2,14.031 1.118,27.067 12.31,36.882 19.873,17.426 56.911,10.827 69.789,-12.331 1.053,-1.893 1.555,-4.092 2.312,-6.149 -0.393,-0.331 -0.785,-0.662 -1.177,-0.993 -2.734,1.376 -5.516,2.666 -8.193,4.144 -8.719,4.807 -18.017,6.795 -27.909,5.742 -11.889,-1.267 -19.988,-10.246 -18.806,-21.186 3.567,0.541 7.116,1.201 10.694,1.604 z m 1.332,-37.842 c 6.729,-5.423 16.741,-4.631 20.461,1.253 3.722,5.886 0.665,14.787 -6.82,18.984 -7.898,4.428 -16.352,4.741 -25.356,2.764 1.231,-9.237 4.513,-17.196 11.715,-23.001 z"
   id="path3738"
   inkscape:connector-curvature="0" />
	<path
   style="fill:#e69b76"
   d="m 343.863,723.025 c 13.439,1.45 26.373,-0.055 37.678,-8.108 9.324,-6.644 13.726,-16.067 11.688,-27.385 -1.911,-10.613 -9.644,-16.524 -19.617,-19.138 -38.77,-10.158 -74.047,18.456 -68.746,61.141 1.447,11.658 7.479,20.887 17.929,26.824 20.499,11.646 49.186,5.141 62.442,-14.272 1.682,-2.462 2.633,-5.422 3.922,-8.15 -0.525,-0.427 -1.051,-0.854 -1.577,-1.279 -2.767,1.432 -5.56,2.814 -8.295,4.305 -8.742,4.765 -18.066,6.694 -27.944,5.557 -11.865,-1.367 -20.352,-11.174 -18.266,-21.16 3.585,0.562 7.168,1.276 10.786,1.665 z m 2.136,-38.713 c 0.663,-0.483 1.412,-0.868 2.159,-1.218 6.402,-2.989 14.05,-1.551 17.127,3.203 3.205,4.95 1.414,12.876 -4.264,17.277 -8.271,6.412 -17.711,6.451 -27.949,4.656 1.554,-9.744 4.894,-18.064 12.927,-23.918 z"
   id="path3740"
   inkscape:connector-curvature="0" />
	<path
   style="fill:#e69b76"
   d="m 728.425,736.885 c -8.729,4.791 -18.041,6.744 -27.927,5.651 -11.606,-1.283 -19.238,-9.627 -18.905,-21.217 3.948,0.605 7.516,1.289 11.115,1.68 13.794,1.497 27.029,-0.043 38.498,-8.594 8.864,-6.608 12.94,-15.813 11.059,-26.72 -1.802,-10.441 -9.368,-16.143 -19.006,-19.175 -28.398,-8.934 -58.476,6.829 -67.353,35.193 -10.003,31.965 6.167,57.036 37.771,58.152 16.594,0.586 30.19,-5.842 40.15,-19.257 1.923,-2.592 2.922,-5.869 4.347,-8.83 -0.494,-0.377 -0.988,-0.753 -1.482,-1.129 -2.758,1.412 -5.552,2.757 -8.267,4.246 z m -35.951,-50.601 c 4.818,-4.562 10.604,-6.069 17.014,-3.728 3.97,1.451 6.15,4.437 6.279,8.696 0.208,6.935 -3.347,11.656 -9.267,14.661 -7.566,3.841 -15.564,4.073 -24.346,2.25 1.104,-8.682 4.185,-16.069 10.32,-21.879 z"
   id="path3742"
   inkscape:connector-curvature="0" />
	<path
   style="fill:#e69b76"
   d="m 548.05,669.218 c 1.835,-15.006 3.622,-30.018 5.606,-46.486 -8.266,0 -15.839,-0.041 -23.411,0.02 -3.275,0.026 -4.726,1.467 -5.148,5.095 -3.718,31.88 -7.725,63.726 -11.58,95.589 -0.898,7.426 -1.771,14.868 -2.232,22.329 -0.373,6.025 1.771,11.155 7.345,14.245 9.593,5.315 25.185,0.152 29.606,-9.914 0.493,-1.124 0.066,-3.837 -0.616,-4.111 -7.91,-3.176 -7.754,-9.727 -6.975,-16.354 2.37,-20.15 4.942,-40.276 7.405,-60.413 z"
   id="path3744"
   inkscape:connector-curvature="0" />
</g>
</svg>